<?xml version="1.0" standalone="no"?>
<!DOCTYPE svg PUBLIC "-//W3C//DTD SVG 1.1//EN" "http://www.w3.org/Graphics/SVG/1.1/DTD/svg11.dtd" >
<svg >
<metadata></metadata>
<defs>
<font id="simplon_bpbold" horiz-adv-x="1142" >
<font-face units-per-em="2048" ascent="1671" descent="-377" />
<missing-glyph horiz-adv-x="430" />
<glyph unicode="&#xfb01;" horiz-adv-x="1220" d="M27 813v244h149v106q0 271 270 271h261v-244h-183q-46 0 -62 -21t-16 -63v-49h261v-244h-261v-813h-270v813h-149zM827 0v1057h271v-1057h-271zM827 1194v240h271v-240h-271z" />
<glyph unicode="&#xfb02;" horiz-adv-x="1277" d="M27 813v244h149v106q0 271 270 271h261v-244h-183q-46 0 -62 -21t-16 -63v-49h261v-244h-261v-813h-270v813h-149zM821 270q0 -270 271 -270h131v244h-54q-46 0 -61.5 21t-15.5 63v1106h-271v-1164z" />
<glyph unicode="&#xfb03;" horiz-adv-x="1892" d="M27 813v244h149v106q0 271 270 271h261v-244h-183q-46 0 -62 -21t-16 -63v-49h402v106q0 271 270 271h260v-244h-182q-46 0 -62 -21t-16 -63v-49h260v-244h-260v-813h-270v813h-402v-813h-270v813h-149zM1499 0v1057h270v-1057h-270zM1499 1194v240h270v-240h-270z" />
<glyph unicode="&#xfb04;" horiz-adv-x="1951" d="M27 813v244h149v106q0 271 270 271h261v-244h-183q-46 0 -62 -21t-16 -63v-49h402v106q0 271 270 271h260v-244h-182q-46 0 -62 -21t-16 -63v-49h260v-244h-260v-813h-270v813h-402v-813h-270v813h-149zM1495 270q0 -270 270 -270h131v244h-53q-46 0 -62 21t-16 63v1106 h-270v-1164z" />
<glyph horiz-adv-x="0" />
<glyph horiz-adv-x="682" />
<glyph unicode=" "  horiz-adv-x="430" />
<glyph unicode="&#x09;" horiz-adv-x="430" />
<glyph unicode="&#xa0;" horiz-adv-x="430" />
<glyph unicode="!" horiz-adv-x="614" d="M143 0v328h328v-328h-328zM172 430v1004h270v-1004h-270z" />
<glyph unicode="&#x22;" horiz-adv-x="1009" d="M133 975v459h270v-459h-270zM606 975v459h271v-459h-271z" />
<glyph unicode="#" horiz-adv-x="1433" d="M109 367v245h188l53 209h-190v246h252l92 367h260l-92 -367h264l92 367h260l-92 -367h129v-246h-190l-54 -209h193v-245h-254l-90 -367h-260l90 367h-264l-90 -367h-261l91 367h-127zM557 612h264l53 209h-264z" />
<glyph unicode="$" horiz-adv-x="1079" d="M53 453h271q3 -84 48.5 -148t125.5 -78v363l-82 28q-164 55 -254 164t-90 265q0 181 120.5 287.5t305.5 117.5v186h88v-186q170 -13 277.5 -124t129.5 -286h-270q-10 66 -46.5 108t-90.5 54v-354l88 -29q181 -62 260.5 -172t79.5 -268q0 -170 -115.5 -279.5 t-312.5 -119.5v-187h-88v187q-198 13 -317 140t-128 331zM342 1047q0 -58 41.5 -98.5t105.5 -63.5l9 -4v327q-73 -9 -114.5 -50t-41.5 -111zM586 225q73 9 115 50.5t42 105.5q0 127 -151 178l-6 2v-336z" />
<glyph unicode="%" horiz-adv-x="1812" d="M109 893v250q0 134 71.5 218.5t218.5 84.5t218 -84.5t71 -218.5v-250q0 -134 -71 -218.5t-218 -84.5t-218.5 84.5t-71.5 218.5zM299 862q0 -102 100 -102q51 0 75 28t24 74v312q0 46 -24 74t-75 28q-100 0 -100 -102v-312zM305 0l985 1434h217l-985 -1434h-217zM1124 291 v250q0 134 72 218.5t219 84.5t218 -84.5t71 -218.5v-250q0 -134 -71 -218.5t-218 -84.5t-219 84.5t-72 218.5zM1315 260q0 -102 100 -102q98 0 98 102v311q0 46 -23.5 74.5t-74.5 28.5q-100 0 -100 -103v-311z" />
<glyph unicode="&#x26;" horiz-adv-x="1253" d="M80 403q0 101 40 182.5t111 125.5q-73 46 -112 135.5t-39 177.5q0 184 118 297t334 113h218v-244h-199q-95 0 -148 -44t-53 -132q0 -89 53 -133.5t148 -44.5h199v163h270v-163h248v-244h-248v-592h-475q-216 0 -340.5 108.5t-124.5 294.5zM350 418q0 -83 52 -128.5 t141 -45.5h207v348h-207q-89 0 -141 -45.5t-52 -128.5z" />
<glyph unicode="'" horiz-adv-x="536" d="M133 975v459h270v-459h-270z" />
<glyph unicode="(" horiz-adv-x="610" d="M166 -82v1245q0 271 270 271h131v-250h-73q-46 0 -62 -21t-16 -63v-1118q0 -42 16 -63t62 -21h73v-250h-131q-270 0 -270 270z" />
<glyph unicode=")" horiz-adv-x="610" d="M43 -102v-250h131q270 0 270 270v1245q0 271 -270 271h-131v-250h74q46 0 62 -21t16 -63v-1118q0 -42 -16 -63t-62 -21h-74z" />
<glyph unicode="*" horiz-adv-x="1097" d="M106 1024l242 -78l-147 -207l198 -145l152 207l147 -207l199 145l-147 207l241 78l-78 233l-241 -77v254h-246v-254l-242 77z" />
<glyph unicode="+" d="M100 440v246h349v348h245v-348h348v-246h-348v-348h-245v348h-349z" />
<glyph unicode="," horiz-adv-x="614" d="M143 0v328h328v-328l-88 -233h-193l89 233h-136z" />
<glyph unicode="-" horiz-adv-x="757" d="M82 440v246h594v-246h-594z" />
<glyph unicode="." horiz-adv-x="614" d="M143 0v328h328v-328h-328z" />
<glyph unicode="/" horiz-adv-x="772" d="M-41 0l580 1434h274l-580 -1434h-274z" />
<glyph unicode="0" d="M100 465v504q0 223 123.5 354t347.5 131t347.5 -131t123.5 -354v-504q0 -223 -123.5 -354t-347.5 -131t-347.5 131t-123.5 354zM371 430q0 -95 52.5 -151t147.5 -56t148 56t53 151v574q0 95 -53 150.5t-148 55.5t-147.5 -55.5t-52.5 -150.5v-574z" />
<glyph unicode="1" horiz-adv-x="753" d="M66 868v328l274 238h270v-1434h-270v1106z" />
<glyph unicode="2" horiz-adv-x="1087" d="M68 0h942v244h-559l333 325q113 110 169.5 217.5t56.5 241.5q0 190 -127.5 308t-341.5 118q-219 0 -343 -125.5t-130 -341.5v-4h270v21q0 95 53.5 150.5t149.5 55.5q94 0 147 -52.5t53 -133.5q0 -127 -133 -254l-540 -526v-244z" />
<glyph unicode="3" horiz-adv-x="1099" d="M66 408q15 -198 140.5 -313t336.5 -115q217 0 341 108.5t124 298.5q0 90 -42.5 186t-109.5 138q74 53 113 135.5t39 167.5q0 190 -127.5 315t-343.5 125q-210 0 -333 -115t-138 -313v-2h268v2q6 84 59.5 134t143.5 50q95 0 147.5 -55.5t52.5 -150.5q0 -79 -56 -123.5 t-155 -44.5h-118v-244h118q95 0 153 -52t58 -139q0 -84 -51.5 -131t-140.5 -47q-90 0 -147.5 50.5t-63.5 134.5v2h-268v-2z" />
<glyph unicode="4" horiz-adv-x="1064" d="M0 326v239l618 869h271v-869h149v-239h-149v-326h-271v326h-618zM313 565h305v428z" />
<glyph unicode="5" horiz-adv-x="1101" d="M100 408v2h269v-2q6 -83 60.5 -134t141.5 -51q98 0 149.5 51t51.5 136v77q0 95 -53 151t-148 56q-138 0 -182 -110h-270v850h868v-244h-598v-299q30 19 88 33t115 14q214 0 332 -131t118 -354v-66q0 -188 -127 -297.5t-331 -109.5q-227 0 -347.5 113t-136.5 315z" />
<glyph unicode="6" horiz-adv-x="1130" d="M100 453q0 -218 124.5 -345.5t346.5 -127.5t346.5 127.5t124.5 343.5v4q0 212 -122 340.5t-336 128.5q-66 0 -124.5 -19.5t-88.5 -44.5v144q0 95 52.5 150.5t147.5 55.5q89 0 142 -49.5t59 -134.5v-2h268v2q-15 199 -137 313.5t-332 114.5q-224 0 -347.5 -131 t-123.5 -354v-516zM371 430v51q2 92 54 145.5t146 53.5q95 0 148 -56t53 -151v-43q0 -95 -53 -151t-148 -56t-147.5 56t-52.5 151z" />
<glyph unicode="7" horiz-adv-x="954" d="M6 1190v244h930v-244l-447 -1190h-284l446 1190h-645z" />
<glyph unicode="8" horiz-adv-x="1126" d="M92 416q0 -199 133 -317.5t338 -118.5t338 118.5t133 317.5q0 92 -36 173.5t-103 133.5q125 114 125 301q0 196 -125.5 313t-331.5 117t-331.5 -117t-125.5 -313q0 -187 125 -301q-67 -52 -103 -133.5t-36 -173.5zM362 416q0 86 56.5 139t144.5 53t144.5 -53t56.5 -139 q0 -85 -56.5 -139t-144.5 -54t-144.5 54t-56.5 139zM377 1024q0 77 50.5 131.5t135.5 54.5t136 -54.5t51 -131.5t-51 -131.5t-136 -54.5t-135.5 54.5t-50.5 131.5z" />
<glyph unicode="9" horiz-adv-x="1130" d="M88 979q0 -212 122.5 -340.5t336.5 -128.5q67 0 125 19t88 44v-143q0 -95 -53 -151t-148 -56q-89 0 -142 50t-59 135v2h-268v-2q15 -199 137 -313.5t332 -114.5q224 0 347.5 131t123.5 354v516q0 218 -124.5 345.5t-346.5 127.5t-346.5 -127.5t-124.5 -343.5v-4zM358 961 v43q0 95 53 150.5t148 55.5t148 -55.5t53 -150.5v-52q-2 -92 -54.5 -145t-146.5 -53q-95 0 -148 56t-53 151z" />
<glyph unicode=":" horiz-adv-x="614" d="M143 0v328h328v-328h-328zM143 729v328h328v-328h-328z" />
<glyph unicode=";" horiz-adv-x="614" d="M143 0v328h328v-328l-88 -233h-193l89 233h-136zM143 729v328h328v-328h-328z" />
<glyph unicode="&#x3c;" d="M100 393v275l942 403v-268l-636 -273l636 -272v-268z" />
<glyph unicode="=" d="M100 195v245h942v-245h-942zM100 686h942v246h-942v-246z" />
<glyph unicode="&#x3e;" d="M100 -10l942 403v275l-942 403v-268l637 -273l-637 -272v-268z" />
<glyph unicode="?" horiz-adv-x="1079" d="M55 1024v4q18 199 139 312.5t330 113.5q221 0 346 -126.5t125 -340.5q0 -99 -45 -183.5t-112 -146.5l-107 -98q-42 -39 -57 -64t-15 -57v-8h-270v45q0 81 26 129t103 119l107 98q23 21 35 33t30 36.5t26.5 52.5t8.5 61q0 95 -53 150.5t-148 55.5q-88 0 -140 -48.5 t-60 -133.5v-4h-269zM360 0v328h328v-328h-328z" />
<glyph unicode="@" horiz-adv-x="1916" d="M113 432v193q0 176 43.5 316.5t120 235t184.5 158t231 91.5t266 28t266.5 -28t231 -91.5t184 -158t120.5 -235t44 -316.5v-367q0 -122 -86 -200t-227 -78q-230 0 -332 120q-40 -57 -115.5 -88.5t-173.5 -31.5q-185 0 -288 83t-103 230q0 117 46 190t155 125 q48 23 139 39.5t159.5 23.5t176.5 15q-14 73 -64.5 114.5t-132.5 41.5q-69 0 -117 -31t-69 -86h-272q33 169 150.5 264.5t307.5 95.5q224 0 348 -131t124 -354v-303q0 -70 61 -70q63 0 63 70v334q0 275 -155 425t-441 150t-441 -150t-155 -425v-205q0 -275 155 -425.5 t441 -150.5q219 0 367 93l123 -226q-198 -114 -490 -114q-143 0 -266 28t-231 91.5t-184.5 158t-120 235t-43.5 316.5zM750 324q0 -44 38 -75.5t121 -31.5q108 0 179 57t71 154v35q-296 -19 -352 -49q-33 -17 -45 -36.5t-12 -53.5z" />
<glyph unicode="A" horiz-adv-x="1282" d="M-2 0l512 1434h262l512 -1434h-287l-102 289h-508l-102 -289h-287zM481 549h320l-160 465z" />
<glyph unicode="B" horiz-adv-x="1280" d="M133 0v1434h594q215 0 334 -111.5t119 -300.5q0 -190 -129 -289q77 -58 120 -139t43 -174q0 -194 -118 -307t-336 -113h-627zM408 272h360q84 0 128 41t44 117q0 75 -46.5 116.5t-125.5 41.5h-360v-316zM408 860h325q79 0 125.5 40t46.5 112q0 73 -46 111t-126 38h-325 v-301z" />
<glyph unicode="C" horiz-adv-x="1241" d="M90 510q0 -241 143.5 -385.5t397.5 -144.5q247 0 389 135t151 364h-276q-10 -107 -83 -167t-181 -60q-116 0 -191 68.5t-75 189.5v414q0 121 75 189.5t191 68.5q107 0 180.5 -61t83.5 -167h276q-9 229 -151 364.5t-389 135.5q-254 0 -397.5 -144.5t-143.5 -385.5v-414z " />
<glyph unicode="D" horiz-adv-x="1304" d="M133 0h541q254 0 397 144t143 386v373q0 242 -143 386.5t-397 144.5h-541v-1434zM408 272v889h266q116 0 191 -68.5t75 -189.5v-373q0 -121 -75 -189.5t-191 -68.5h-266z" />
<glyph unicode="E" horiz-adv-x="1105" d="M133 0v1434h873v-273h-598v-301h598v-272h-598v-316h598v-272h-873z" />
<glyph unicode="F" horiz-adv-x="1085" d="M133 0v1434h873v-273h-598v-301h598v-272h-598v-588h-275z" />
<glyph unicode="G" horiz-adv-x="1257" d="M90 510q0 -241 143.5 -385.5t397.5 -144.5t397 144t143 386v309h-540v-272h266v-37q0 -121 -75 -189.5t-191 -68.5t-191 68.5t-75 189.5v414q0 121 75 189.5t191 68.5q100 0 172 -53t90 -148h276q-18 218 -158.5 345.5t-379.5 127.5q-254 0 -397.5 -144.5t-143.5 -385.5 v-414z" />
<glyph unicode="H" horiz-adv-x="1347" d="M133 0v1434h275v-574h532v574h274v-1434h-274v588h-532v-588h-275z" />
<glyph unicode="I" horiz-adv-x="540" d="M133 0v1434h275v-1434h-275z" />
<glyph unicode="J" horiz-adv-x="964" d="M-2 410h276q6 -76 45 -117t105 -41q76 0 113.5 45.5t37.5 120.5v1016h275v-1024q0 -211 -111 -320.5t-315 -109.5t-315 109.5t-111 320.5z" />
<glyph unicode="K" horiz-adv-x="1320" d="M133 0v1434h279v-619l526 619h350l-504 -592l555 -842h-335l-408 621l-184 -215v-406h-279z" />
<glyph unicode="L" horiz-adv-x="1005" d="M133 0v1434h275v-1162h598v-272h-873z" />
<glyph unicode="M" horiz-adv-x="1523" d="M133 0v1434h275l354 -738l354 738h275v-1434h-273v901l-248 -516h-217l-247 516v-901h-273z" />
<glyph unicode="N" horiz-adv-x="1347" d="M133 0v1434h275l532 -924v924h274v-1434h-274l-532 924v-924h-275z" />
<glyph unicode="O" horiz-adv-x="1261" d="M90 510v414q0 241 143.5 385.5t397.5 144.5t397 -144t143 -386v-414q0 -242 -143 -386t-397 -144t-397.5 144.5t-143.5 385.5zM365 510q0 -121 75 -189.5t191 -68.5t191 68.5t75 189.5v414q0 121 -75 189.5t-191 68.5t-191 -68.5t-75 -189.5v-414z" />
<glyph unicode="P" horiz-adv-x="1243" d="M133 0v1434h586q123 0 220 -40.5t156 -110t89 -157t30 -188.5q0 -100 -30 -188t-89 -158t-156 -111t-220 -41h-311v-440h-275zM408 713h311q107 0 164 66.5t57 158.5q0 91 -57 157t-164 66h-311v-448z" />
<glyph unicode="Q" horiz-adv-x="1284" d="M90 510v414q0 241 143.5 385.5t397.5 144.5t397 -144t143 -386v-414q0 -182 -79 -307l110 -113l-186 -182l-121 125q-112 -53 -264 -53q-254 0 -397.5 144.5t-143.5 385.5zM365 510q0 -121 75 -189.5t191 -68.5q33 0 49 4l-121 123l186 182l138 -141q14 47 14 90v414 q0 121 -75 189.5t-191 68.5t-191 -68.5t-75 -189.5v-414z" />
<glyph unicode="R" horiz-adv-x="1265" d="M133 0h275v590h167l347 -590h315l-356 604q150 35 229.5 141t79.5 267q0 196 -118.5 309t-334.5 113h-604v-1434zM408 856v305h335q80 0 126 -39.5t46 -113.5q0 -72 -46.5 -112t-125.5 -40h-335z" />
<glyph unicode="S" horiz-adv-x="1107" d="M43 453q11 -215 154 -344t376 -129q231 0 355.5 109.5t124.5 305.5q0 178 -85.5 284.5t-254.5 151.5l-234 64q-143 37 -143 141q0 72 53 109t143 37q75 0 137.5 -36t80.5 -104h282q-24 187 -154 299.5t-341 112.5q-96 0 -180 -25.5t-151 -75.5t-106 -131.5t-39 -185.5 q0 -161 83 -270.5t245 -153.5l242 -65q76 -20 111.5 -56.5t35.5 -95.5q0 -71 -55.5 -107t-149.5 -36q-102 0 -168.5 55t-78.5 146h-283z" />
<glyph unicode="T" horiz-adv-x="1077" d="M-2 1161v273h1081v-273h-399v-1161h-283v1161h-399z" />
<glyph unicode="U" horiz-adv-x="1310" d="M115 510v924h274v-924q0 -121 75 -189.5t191 -68.5q117 0 192 68.5t75 189.5v924h274v-924q0 -241 -143.5 -385.5t-397.5 -144.5t-397 144t-143 386z" />
<glyph unicode="V" horiz-adv-x="1286" d="M-2 1434l512 -1434h266l512 1434h-289l-356 -998l-356 998h-289z" />
<glyph unicode="W" horiz-adv-x="1540" d="M25 1434l264 -1434h297l184 831l184 -831h297l265 1434h-277l-166 -971l-170 766h-266l-170 -766l-166 971h-276z" />
<glyph unicode="X" horiz-adv-x="1273" d="M6 0h313l318 504l317 -504h314l-475 741l444 693h-313l-287 -451l-287 451h-313l444 -693z" />
<glyph unicode="Y" horiz-adv-x="1241" d="M-25 1434h312l334 -598l333 598h312l-508 -912v-522h-275v522z" />
<glyph unicode="Z" horiz-adv-x="1193" d="M49 0v272l717 889h-707v273h1071v-273l-716 -889h727v-272h-1092z" />
<glyph unicode="[" horiz-adv-x="616" d="M166 -352v1786h401v-250h-151v-1286h151v-250h-401z" />
<glyph unicode="\" horiz-adv-x="772" d="M-41 1434l580 -1434h274l-580 1434h-274z" />
<glyph unicode="]" horiz-adv-x="616" d="M49 -102v-250h402v1786h-402v-250h152v-1286h-152z" />
<glyph unicode="^" horiz-adv-x="1282" d="M102 614l410 820h258l410 -820h-283l-256 512l-256 -512h-283z" />
<glyph unicode="_" horiz-adv-x="880" d="M-31 -70h942v-245h-942v245z" />
<glyph unicode="`" horiz-adv-x="657" d="M78 1434l241 -265h234l-123 265h-352z" />
<glyph unicode="a" d="M84 293q0 117 46 190t155 125q48 23 139 39.5t159.5 23.5t176.5 15v2q-14 72 -64.5 113t-132.5 41q-69 0 -117 -31t-69 -86h-273q33 169 151 264.5t308 95.5q224 0 347.5 -131t123.5 -354v-600h-270v121q-86 -141 -295 -141q-181 0 -283 83t-102 230zM354 324 q0 -44 38.5 -75.5t121.5 -31.5q108 0 179 57t71 154v35q-296 -19 -352 -49q-33 -17 -45.5 -36.5t-12.5 -53.5z" />
<glyph unicode="b" horiz-adv-x="1155" d="M123 0h270v100q35 -53 105.5 -86.5t142.5 -33.5q66 0 127 17.5t115 54.5t94.5 90t64 129t23.5 167v189q0 91 -23.5 167t-64 129t-94.5 90t-115 54.5t-127 17.5q-72 0 -142.5 -33.5t-105.5 -86.5v469h-270v-1434zM393 449v167q0 101 58.5 153t142.5 52t142.5 -52 t58.5 -153v-167q0 -101 -58.5 -153t-142.5 -52t-142.5 52t-58.5 153z" />
<glyph unicode="c" horiz-adv-x="1101" d="M90 465q0 -223 123.5 -354t347.5 -131q202 0 323.5 108t143.5 297h-270q-11 -76 -62 -119t-135 -43q-95 0 -148 56t-53 151v205q0 95 53 151t148 56q83 0 134 -43.5t63 -118.5h270q-22 189 -143.5 297t-323.5 108q-224 0 -347.5 -131t-123.5 -354v-135z" />
<glyph unicode="d" horiz-adv-x="1155" d="M90 438v189q0 91 23.5 167t64 129t94.5 90t115 54.5t127 17.5q72 0 142.5 -33.5t105.5 -86.5v469h270v-1434h-270v100q-35 -53 -105.5 -86.5t-142.5 -33.5q-66 0 -127 17.5t-115 54.5t-94.5 90t-64 129t-23.5 167zM360 449q0 -101 58.5 -153t142.5 -52t142.5 52t58.5 153 v167q0 101 -58.5 153t-142.5 52t-142.5 -52t-58.5 -153v-167z" />
<glyph unicode="e" horiz-adv-x="1120" d="M90 465v135q0 223 123.5 354t347.5 131t347.5 -131t123.5 -354v-164h-672v-6q0 -95 53 -151t148 -56q69 0 117.5 31t69.5 86h274q-33 -169 -152 -264.5t-309 -95.5q-224 0 -347.5 131t-123.5 354zM360 659h400v3q-6 84 -57.5 132t-141.5 48q-89 0 -141 -48.5t-60 -131.5 v-3z" />
<glyph unicode="f" horiz-adv-x="704" d="M27 813v244h149v106q0 271 270 271h261v-244h-183q-46 0 -62 -21t-16 -63v-49h261v-244h-261v-813h-270v813h-149z" />
<glyph unicode="g" horiz-adv-x="1153" d="M88 514v113q0 91 23.5 167t64 129t94.5 90t115 54.5t127 17.5q72 0 142.5 -33.5t105.5 -86.5v92h270v-969q0 -223 -123.5 -354t-347.5 -131q-198 0 -319 104t-146 287h271q15 -70 64.5 -109t129.5 -39q95 0 148 56t53 151v123q-35 -53 -105.5 -87t-142.5 -34 q-83 0 -157.5 28.5t-135 83.5t-96 144.5t-35.5 202.5zM358 524q0 -101 58.5 -153t142.5 -52t142.5 52t58.5 153v92q0 101 -58.5 153t-142.5 52t-142.5 -52t-58.5 -153v-92z" />
<glyph unicode="h" horiz-adv-x="1173" d="M123 0h270v616q0 101 58.5 153t142.5 52t142.5 -52t58.5 -153v-616h270v627q0 91 -23.5 167t-64 129t-94.5 90t-115 54.5t-127 17.5q-72 0 -142.5 -33.5t-105.5 -86.5v469h-270v-1434z" />
<glyph unicode="i" horiz-adv-x="516" d="M123 0v1057h270v-1057h-270zM123 1194v240h270v-240h-270z" />
<glyph unicode="j" horiz-adv-x="516" d="M-8 -133h53q46 0 62 21t16 63v1106h270v-1163q0 -271 -270 -271h-131v244zM123 1194v240h270v-240h-270z" />
<glyph unicode="k" horiz-adv-x="1103" d="M123 0v1434h270v-746l338 369h328l-383 -416l438 -641h-317l-303 442l-101 -110v-332h-270z" />
<glyph unicode="l" horiz-adv-x="575" d="M119 270q0 -270 270 -270h131v244h-53q-46 0 -62 21t-16 63v1106h-270v-1164z" />
<glyph unicode="m" horiz-adv-x="1820" d="M123 0h270v616q0 99 58 152t137 53t136.5 -53t57.5 -152v-616h271v616q0 99 57.5 152t136.5 53t137 -53t58 -152v-616h270v627q0 150 -61 255t-164 154t-240 49q-214 0 -329 -139q-105 139 -285 139q-70 0 -136 -31.5t-104 -84.5v88h-270v-1057z" />
<glyph unicode="n" horiz-adv-x="1173" d="M123 0h270v616q0 101 58.5 153t142.5 52t142.5 -52t58.5 -153v-616h270v627q0 91 -23.5 167t-64 129t-94.5 90t-115 54.5t-127 17.5q-72 0 -142.5 -33.5t-105.5 -86.5v92h-270v-1057z" />
<glyph unicode="o" horiz-adv-x="1122" d="M90 465v135q0 223 123.5 354t347.5 131t347.5 -131t123.5 -354v-135q0 -223 -123.5 -354t-347.5 -131t-347.5 131t-123.5 354zM360 430q0 -95 53 -151t148 -56t148 56t53 151v205q0 95 -53 151t-148 56t-148 -56t-53 -151v-205z" />
<glyph unicode="p" horiz-adv-x="1155" d="M123 -377h270v477q35 -53 105.5 -86.5t142.5 -33.5q66 0 127 17.5t115 54.5t94.5 90t64 129t23.5 167v189q0 91 -23.5 167t-64 129t-94.5 90t-115 54.5t-127 17.5q-72 0 -142.5 -33.5t-105.5 -86.5v92h-270v-1434zM393 449v167q0 101 58.5 153t142.5 52t142.5 -52 t58.5 -153v-167q0 -101 -58.5 -153t-142.5 -52t-142.5 52t-58.5 153z" />
<glyph unicode="q" horiz-adv-x="1155" d="M90 438v189q0 91 23.5 167t64 129t94.5 90t115 54.5t127 17.5q72 0 142.5 -33.5t105.5 -86.5v92h270v-1434h-270v477q-35 -53 -105.5 -86.5t-142.5 -33.5q-66 0 -127 17.5t-115 54.5t-94.5 90t-64 129t-23.5 167zM360 449q0 -101 58.5 -153t142.5 -52t142.5 52t58.5 153 v167q0 101 -58.5 153t-142.5 52t-142.5 -52t-58.5 -153v-167z" />
<glyph unicode="r" horiz-adv-x="745" d="M123 0h270v606q0 101 58.5 153t142.5 52h127v264h-82q-89 0 -155 -38.5t-91 -94.5v115h-270v-1057z" />
<glyph unicode="s" horiz-adv-x="976" d="M49 342q4 -90 45 -161.5t106.5 -114t144 -64.5t163.5 -22q86 0 158 18t130 55.5t91 101.5t33 150q0 78 -23 138.5t-62.5 97t-81 58t-89.5 32.5l-238 53q-82 18 -82 78q2 37 34.5 58.5t90.5 21.5q54 0 92.5 -25t48.5 -74h277q-7 88 -41.5 154.5t-90 107t-125.5 60.5 t-153 20q-110 0 -200.5 -37.5t-146.5 -112.5t-56 -175q0 -74 24 -133.5t63.5 -97t82.5 -60t90 -33.5l221 -49q94 -21 94 -82q0 -82 -133 -82q-46 0 -87.5 12t-72.5 40t-37 67h-270z" />
<glyph unicode="t" horiz-adv-x="753" d="M23 813h149v-543q0 -270 270 -270h260v244h-182q-46 0 -62 21t-16 63v485h260v244h-260v239h-270v-239h-149v-244z" />
<glyph unicode="u" horiz-adv-x="1161" d="M109 438v619h270v-608q0 -99 57 -152t137 -53t137.5 53t57.5 152v608h270v-1057h-270v115q-37 -60 -101.5 -97.5t-154.5 -37.5q-76 0 -146.5 28t-128.5 81.5t-93 144t-35 204.5z" />
<glyph unicode="v" horiz-adv-x="1003" d="M-18 1057h284l236 -674l235 674h285l-381 -1057h-279z" />
<glyph unicode="w" horiz-adv-x="1441" d="M-4 1057l278 -1057h275l172 752l172 -752h274l279 1057h-281l-157 -670l-154 670h-266l-154 -670l-158 670h-280z" />
<glyph unicode="x" horiz-adv-x="1036" d="M0 0l358 543l-342 514h308l194 -299l195 299h307l-342 -514l358 -543h-309l-209 324l-209 -324h-309z" />
<glyph unicode="y" horiz-adv-x="1003" d="M-18 1057h284l236 -674l235 674h285l-416 -1157q-6 -16 -19.5 -57t-19 -55t-19.5 -45t-24 -42.5t-29 -31t-39 -26.5t-48.5 -13.5t-63.5 -6.5h-201v244h113q56 0 72 47l30 86z" />
<glyph unicode="z" horiz-adv-x="905" d="M49 0v244l455 569h-441v244h781v-244l-455 -569h469v-244h-809z" />
<glyph unicode="{" horiz-adv-x="681" d="M80 416h74q46 0 61.5 -21t15.5 -63v-414q0 -270 271 -270h131v250h-74q-46 0 -62 21t-16 63v413q0 97 -49 146q49 47 49 145v414q0 42 16 63t62 21h74v250h-131q-271 0 -271 -271v-413q0 -42 -15.5 -63t-61.5 -21h-74v-250z" />
<glyph unicode="|" horiz-adv-x="516" d="M133 -205v1639h250v-1639h-250z" />
<glyph unicode="}" horiz-adv-x="681" d="M49 -102h74q46 0 62 21t16 63v413q0 97 49 146q-49 47 -49 145v414q0 42 -16 63t-62 21h-74v250h131q271 0 271 -271v-413q0 -42 15.5 -63t61.5 -21h74v-250h-74q-46 0 -61.5 -21t-15.5 -63v-414q0 -270 -271 -270h-131v250z" />
<glyph unicode="~" horiz-adv-x="1126" d="M92 567q150 166 324 166q54 0 106 -23.5t96 -47t80 -23.5q44 0 84.5 21.5t94.5 72.5l157 -174q-150 -166 -323 -166q-54 0 -106 23.5t-96.5 47t-80.5 23.5q-44 0 -83.5 -21t-94.5 -73z" />
<glyph unicode="&#xa1;" horiz-adv-x="552" d="M113 729v328h327v-328h-327zM141 -377v1004h271v-1004h-271z" />
<glyph unicode="&#xa2;" horiz-adv-x="1126" d="M104 465q0 -212 110.5 -341t313.5 -142v-187h88v187q185 10 294.5 116.5t131.5 286.5h-270q-9 -66 -49.5 -108t-106.5 -52v613q65 -9 105 -50.5t51 -107.5h270q-22 180 -131.5 286.5t-294.5 116.5v187h-88v-187q-202 -13 -313 -143t-111 -340v-135zM375 430v205 q0 83 39.5 136.5t113.5 66.5v-611q-74 12 -113.5 66t-39.5 137z" />
<glyph unicode="&#xa3;" horiz-adv-x="1257" d="M102 0v244h62q40 0 54.5 22t14.5 62v309h-131v164h131v168q0 223 124 354t348 131q219 0 342.5 -126.5t128.5 -342.5h-271v19q0 95 -52.5 150.5t-147.5 55.5t-148 -55.5t-53 -150.5v-203h401v-164h-401v-336q0 -45 -12 -57h684v-244h-1074z" />
<glyph unicode="&#xa4;" horiz-adv-x="1441" d="M102 190l177 177q-109 143 -109 329q0 185 109 328l-177 178l115 115l176 -178q145 110 330 110q182 0 328 -108l174 176l114 -115l-174 -176q111 -146 111 -330q0 -185 -111 -331l174 -175l-114 -114l-174 174q-145 -107 -328 -107t-330 109l-176 -176zM414 696 q0 -128 91 -218.5t218 -90.5t218 90.5t91 218.5t-91 219t-218 91t-218 -91t-91 -219z" />
<glyph unicode="&#xa5;" horiz-adv-x="1327" d="M18 1434h304l342 -615l342 615h303l-418 -748h242v-164h-334v-96h334v-164h-334v-262h-271v262h-335v164h335v96h-335v164h243z" />
<glyph unicode="&#xa6;" horiz-adv-x="516" d="M133 -205v694h250v-694h-250zM133 739v695h250v-695h-250z" />
<glyph unicode="&#xa7;" horiz-adv-x="1077" d="M96 543q0 195 150 299q-96 99 -96 260q0 154 105 253t286 99q160 0 262 -87t131 -257h-256q-13 48 -51 74t-86 26q-61 0 -101.5 -29t-40.5 -85q0 -42 25 -74.5t63 -46.5l207 -74q46 -17 82.5 -35.5t76.5 -51t66.5 -72t44 -99.5t17.5 -133q0 -194 -152 -299 q99 -99 99 -260q0 -168 -104 -258t-283 -90q-172 0 -285.5 98.5t-128.5 263.5h260q6 -52 50 -85.5t104 -33.5q63 0 100.5 27t38.5 82q0 46 -30 78t-95 57l-174 62q-46 17 -82 35.5t-76 51t-66.5 72t-43.5 99.5t-17 133zM344 539q0 -49 29.5 -90.5t81.5 -59.5l96 -35 q83 9 131.5 53.5t50.5 106.5q0 49 -29.5 90.5t-80.5 59.5l-99 34q-83 -9 -131.5 -53.5t-48.5 -105.5z" />
<glyph unicode="&#xa8;" horiz-adv-x="884" d="M106 1182v239h271v-239h-271zM508 1182v239h270v-239h-270z" />
<glyph unicode="&#xa9;" horiz-adv-x="1597" d="M61 717q0 150 58.5 286.5t157 235.5t235.5 157t287 58t286.5 -58t235.5 -157t157 -235.5t58 -286.5t-58 -286.5t-157 -235.5t-235.5 -157t-286.5 -58t-287 58t-235.5 157t-157 235.5t-58.5 286.5zM283 717q0 -139 69 -257.5t188 -187.5t259 -69t258 69t186 187.5 t68 257.5t-68 257.5t-186 187.5t-258 69t-259 -69t-188 -187.5t-69 -257.5zM500 625v176q0 127 77 202.5t222 75.5q144 0 221 -73.5t80 -198.5h-193q-5 37 -34.5 60.5t-73.5 23.5q-46 0 -77.5 -25.5t-31.5 -64.5v-176q0 -41 31.5 -67t77.5 -26q44 0 74 23t34 61h193 q-3 -125 -80 -198.5t-221 -73.5q-145 0 -222 77t-77 204z" />
<glyph unicode="&#xaa;" horiz-adv-x="686" d="M41 991q0 107 76 160q36 27 94 43t103.5 20.5t117.5 8.5q-25 59 -96 59q-58 0 -88 -43h-191q24 96 91.5 153.5t187.5 57.5q147 0 219 -84t72 -217v-328h-191v74q-50 -86 -182 -86q-100 0 -156.5 50t-56.5 132zM231 1016q0 -16 16.5 -29.5t57.5 -13.5q54 0 92.5 29 t38.5 71q-150 -9 -180 -22q-25 -11 -25 -35z" />
<glyph unicode="&#xab;" horiz-adv-x="995" d="M86 442l363 -317v332l-117 102l117 103v331l-363 -317v-234zM530 442l363 -317v332l-117 102l117 103v331l-363 -317v-234z" />
<glyph unicode="&#xac;" d="M100 440v246h942v-594h-245v348h-697z" />
<glyph unicode="&#xad;" horiz-adv-x="757" d="M82 440v246h594v-246h-594z" />
<glyph unicode="&#xae;" horiz-adv-x="1597" d="M61 717q0 150 58.5 286.5t157 235.5t235.5 157t287 58t286.5 -58t235.5 -157t157 -235.5t58 -286.5t-58 -286.5t-157 -235.5t-235.5 -157t-286.5 -58t-287 58t-235.5 157t-157 235.5t-58.5 286.5zM283 717q0 -139 69 -257.5t188 -187.5t259 -69t258 69t186 187.5 t68 257.5t-68 257.5t-186 187.5t-258 69t-259 -69t-188 -187.5t-69 -257.5zM514 354h191v267h43l155 -267h219l-166 281q144 44 144 211q0 107 -63 165t-183 58h-340v-715zM705 807v74h153q51 0 51 -37t-51 -37h-153z" />
<glyph unicode="&#xaf;" horiz-adv-x="899" d="M100 1196v213h699v-213h-699z" />
<glyph unicode="&#xb0;" horiz-adv-x="786" d="M74 1124q0 132 93.5 226t225.5 94t226 -94t94 -226t-94 -225.5t-226 -93.5t-225.5 93.5t-93.5 225.5zM272 1124q0 -51 35 -87t86 -36t86 36t35 87t-35 87t-86 36t-86 -36t-35 -87z" />
<glyph unicode="&#xb1;" d="M100 0v246h942v-246h-942zM100 573h349v-237h245v237h348v246h-348v238h-245v-238h-349v-246z" />
<glyph unicode="&#xb2;" horiz-adv-x="659" d="M37 821v170l330 295q39 35 50 56.5t11 48.5q0 104 -100 104q-51 0 -76 -28t-25 -72v-9h-190q2 57 20 106t52 88.5t90 62t129 22.5q140 0 214 -76.5t74 -193.5q0 -82 -28.5 -139t-98.5 -115l-178 -150h305v-170h-579z" />
<glyph unicode="&#xb3;" horiz-adv-x="665" d="M35 1059q15 -109 88 -179.5t205 -70.5q141 0 213.5 65t72.5 173q0 45 -21.5 102t-57.5 82q42 33 60.5 79.5t18.5 88.5q0 51 -18 97.5t-52 84.5t-90.5 61t-127.5 23q-133 0 -204.5 -70t-86.5 -180h188q16 80 103 80q98 0 98 -106q0 -72 -111 -72h-73v-168h73 q50 0 80.5 -22t30.5 -66q0 -38 -25.5 -60t-68.5 -22q-45 0 -72.5 23.5t-34.5 56.5h-188z" />
<glyph unicode="&#xb4;" horiz-adv-x="657" d="M104 1169l123 265h353l-242 -265h-234z" />
<glyph unicode="&#xb5;" horiz-adv-x="1175" d="M123 -377h270v449q32 -43 85 -67.5t110 -24.5t109.5 24.5t84.5 67.5v-72h271v1057h-271v-608q0 -99 -57 -152t-137 -53t-137.5 53t-57.5 152v608h-270v-1434z" />
<glyph unicode="&#xb6;" horiz-adv-x="1333" d="M37 1024q0 168 119.5 289t287.5 121h746v-1612h-250v1362h-225v-1362h-250v792h-21q-168 0 -287.5 120.5t-119.5 289.5z" />
<glyph unicode="&#xb7;" horiz-adv-x="634" d="M154 420v328h327v-328h-327z" />
<glyph unicode="&#xb8;" horiz-adv-x="552" d="M82 -324h266l78 324h-227z" />
<glyph unicode="&#xb9;" horiz-adv-x="464" d="M35 1264v249l160 140h190v-832h-190v580z" />
<glyph unicode="&#xba;" horiz-adv-x="684" d="M51 1112v37q0 133 72 217t219 84t218 -84t71 -217v-37q0 -134 -71 -218.5t-218 -84.5t-219 84.5t-72 218.5zM242 1081q0 -102 100 -102q98 0 98 102v97q0 47 -23.5 75.5t-74.5 28.5q-52 0 -76 -28.5t-24 -75.5v-97z" />
<glyph unicode="&#xbb;" horiz-adv-x="995" d="M94 125v332l117 102l-117 103v331l363 -317v-234zM539 125v332l116 102l-116 103v331l362 -317v-234z" />
<glyph unicode="&#xbc;" horiz-adv-x="1812" d="M223 1044v250l160 140h190v-832h-190v580zM305 0l985 1434h217l-985 -1434h-217zM1102 172v168l346 491h190v-491h88v-168h-88v-172h-190v172h-346zM1327 340h121v176z" />
<glyph unicode="&#xbd;" horiz-adv-x="1812" d="M223 1044v250l160 140h190v-832h-190v580zM305 0l985 1434h217l-985 -1434h-217zM1124 0v170l330 295q40 35 51 56.5t11 47.5q0 105 -101 105q-51 0 -75.5 -28t-24.5 -73v-8h-191q7 124 78.5 201.5t212.5 77.5q140 0 214.5 -77t74.5 -194q0 -82 -28.5 -139t-98.5 -115 l-178 -149h305v-170h-580z" />
<glyph unicode="&#xbe;" horiz-adv-x="1812" d="M109 840q15 -109 87.5 -179.5t204.5 -70.5q141 0 214 65t73 172q0 45 -22 102.5t-58 82.5q42 34 61 80t19 88q0 69 -30 127.5t-97.5 98.5t-161.5 40q-133 0 -204 -70t-86 -180h188q16 80 102 80q99 0 99 -107q0 -71 -111 -71h-74v-168h74q50 0 80.5 -22t30.5 -66 q0 -38 -26 -60t-69 -22q-44 0 -71.5 23t-34.5 57h-188zM305 0l985 1434h217l-985 -1434h-217zM1102 172v168l346 491h190v-491h88v-168h-88v-172h-190v172h-346zM1327 340h121v176z" />
<glyph unicode="&#xbf;" horiz-adv-x="1042" d="M68 70q0 184 157 329l107 99q42 39 56.5 63.5t14.5 56.5v9h271v-45q0 -81 -26 -129t-103 -119l-107 -98q-23 -21 -35 -33t-30 -36.5t-26.5 -52.5t-8.5 -61q0 -95 53 -151t148 -56q89 0 141.5 50.5t58.5 136.5h269q-15 -200 -137 -315t-332 -115q-221 0 -346 126.5 t-125 340.5zM375 729v328h327v-328h-327z" />
<glyph unicode="&#xc0;" horiz-adv-x="1282" d="M-2 0l512 1434h262l512 -1434h-287l-102 289h-508l-102 -289h-287zM301 1749l262 -223h248l-154 223h-356zM481 549h320l-160 465z" />
<glyph unicode="&#xc1;" horiz-adv-x="1282" d="M-2 0l512 1434h262l512 -1434h-287l-102 289h-508l-102 -289h-287zM471 1526l154 223h356l-262 -223h-248zM481 549h320l-160 465z" />
<glyph unicode="&#xc2;" horiz-adv-x="1282" d="M-2 0l512 1434h262l512 -1434h-287l-102 289h-508l-102 -289h-287zM260 1526h291l90 71l90 -71h291l-268 223h-226zM481 549h320l-160 465z" />
<glyph unicode="&#xc3;" horiz-adv-x="1282" d="M-2 0l512 1434h262l512 -1434h-287l-102 289h-508l-102 -289h-287zM272 1507q22 117 84 192t160 75q68 0 125 -29l55 -27q19 -8 37 -8q45 0 66 59h213q-22 -117 -84 -191.5t-160 -74.5q-68 0 -125 29l-55 27q-19 8 -37 8q-44 0 -66 -60h-213zM481 549h320l-160 465z" />
<glyph unicode="&#xc4;" horiz-adv-x="1282" d="M-2 0l512 1434h262l512 -1434h-287l-102 289h-508l-102 -289h-287zM303 1518v239h275v-239h-275zM481 549h320l-160 465zM705 1518v239h274v-239h-274z" />
<glyph unicode="&#xc5;" horiz-adv-x="1282" d="M-2 0l512 1434h262l512 -1434h-287l-102 289h-508l-102 -289h-287zM481 549h320l-160 465zM489 1636q0 63 44.5 108.5t107.5 45.5t108.5 -45.5t45.5 -108.5t-45.5 -107t-108.5 -44t-107.5 44t-44.5 107zM604 1636q0 -15 11 -26t26 -11t26 11t11 26t-11 26t-26 11t-26 -11 t-11 -26z" />
<glyph unicode="&#xc6;" horiz-adv-x="1798" d="M-16 0l659 1434h1055v-273h-598v-301h598v-272h-598v-316h598v-272h-873v324h-391l-147 -324h-303zM557 586h268v585z" />
<glyph unicode="&#xc7;" horiz-adv-x="1241" d="M90 510q0 -207 107.5 -345t302.5 -173l-103 -316h271l73 312q197 29 309 159t121 332h-276q-10 -107 -83 -167t-181 -60q-116 0 -191 68.5t-75 189.5v414q0 121 75 189.5t191 68.5q107 0 180.5 -61t83.5 -167h276q-9 229 -151 364.5t-389 135.5q-254 0 -397.5 -144.5 t-143.5 -385.5v-414z" />
<glyph unicode="&#xc8;" horiz-adv-x="1105" d="M133 0v1434h873v-273h-598v-301h598v-272h-598v-316h598v-272h-873zM229 1749l263 -223h247l-153 223h-357z" />
<glyph unicode="&#xc9;" horiz-adv-x="1105" d="M133 0v1434h873v-273h-598v-301h598v-272h-598v-316h598v-272h-873zM399 1526l154 223h356l-262 -223h-248z" />
<glyph unicode="&#xca;" horiz-adv-x="1105" d="M133 0v1434h873v-273h-598v-301h598v-272h-598v-316h598v-272h-873zM188 1526h291l90 71l90 -71h291l-268 223h-225z" />
<glyph unicode="&#xcb;" horiz-adv-x="1105" d="M133 0v1434h873v-273h-598v-301h598v-272h-598v-316h598v-272h-873zM231 1518v239h275v-239h-275zM633 1518v239h274v-239h-274z" />
<glyph unicode="&#xcc;" horiz-adv-x="538" d="M-72 1749l262 -223h248l-153 223h-357zM131 0v1434h275v-1434h-275z" />
<glyph unicode="&#xcd;" horiz-adv-x="540" d="M100 1526l154 223h356l-262 -223h-248zM133 0v1434h275v-1434h-275z" />
<glyph unicode="&#xce;" horiz-adv-x="540" d="M-111 1526h291l90 71l90 -71h291l-268 223h-225zM133 0v1434h275v-1434h-275z" />
<glyph unicode="&#xcf;" horiz-adv-x="540" d="M-68 1518v239h275v-239h-275zM133 0v1434h275v-1434h-275zM334 1518v239h274v-239h-274z" />
<glyph unicode="&#xd0;" horiz-adv-x="1327" d="M12 621h144v-621h540q254 0 397.5 144.5t143.5 385.5v373q0 242 -143.5 386.5t-397.5 144.5h-540v-629h-144v-184zM430 272v349h266v184h-266v356h266q117 0 192 -68.5t75 -189.5v-373q0 -121 -75 -189.5t-192 -68.5h-266z" />
<glyph unicode="&#xd1;" horiz-adv-x="1347" d="M133 0v1434h275l532 -924v924h274v-1434h-274l-532 924v-924h-275zM305 1507q22 117 84 192t160 75q68 0 125 -29l55 -27q19 -8 37 -8q44 0 65 59h213q-22 -117 -83.5 -191.5t-159.5 -74.5q-68 0 -125 29l-55 27q-19 8 -37 8q-44 0 -66 -60h-213z" />
<glyph unicode="&#xd2;" horiz-adv-x="1261" d="M90 510v414q0 241 143.5 385.5t397.5 144.5t397 -144t143 -386v-414q0 -242 -143 -386t-397 -144t-397.5 144.5t-143.5 385.5zM291 1749l262 -223h248l-154 223h-356zM365 510q0 -121 75 -189.5t191 -68.5t191 68.5t75 189.5v414q0 121 -75 189.5t-191 68.5t-191 -68.5 t-75 -189.5v-414z" />
<glyph unicode="&#xd3;" horiz-adv-x="1261" d="M90 510v414q0 241 143.5 385.5t397.5 144.5t397 -144t143 -386v-414q0 -242 -143 -386t-397 -144t-397.5 144.5t-143.5 385.5zM365 510q0 -121 75 -189.5t191 -68.5t191 68.5t75 189.5v414q0 121 -75 189.5t-191 68.5t-191 -68.5t-75 -189.5v-414zM461 1526l153 223h357 l-262 -223h-248z" />
<glyph unicode="&#xd4;" horiz-adv-x="1261" d="M90 510v414q0 241 143.5 385.5t397.5 144.5t397 -144t143 -386v-414q0 -242 -143 -386t-397 -144t-397.5 144.5t-143.5 385.5zM250 1526h291l90 71l90 -71h291l-269 223h-225zM365 510q0 -121 75 -189.5t191 -68.5t191 68.5t75 189.5v414q0 121 -75 189.5t-191 68.5 t-191 -68.5t-75 -189.5v-414z" />
<glyph unicode="&#xd5;" horiz-adv-x="1261" d="M90 510v414q0 241 143.5 385.5t397.5 144.5t397 -144t143 -386v-414q0 -242 -143 -386t-397 -144t-397.5 144.5t-143.5 385.5zM262 1507q22 117 84 192t160 75q68 0 125 -29l55 -27q19 -8 37 -8q44 0 65 59h213q-22 -117 -83.5 -191.5t-159.5 -74.5q-68 0 -125 29l-55 27 q-19 8 -37 8q-44 0 -66 -60h-213zM365 510q0 -121 75 -189.5t191 -68.5t191 68.5t75 189.5v414q0 121 -75 189.5t-191 68.5t-191 -68.5t-75 -189.5v-414z" />
<glyph unicode="&#xd6;" horiz-adv-x="1261" d="M90 510v414q0 241 143.5 385.5t397.5 144.5t397 -144t143 -386v-414q0 -242 -143 -386t-397 -144t-397.5 144.5t-143.5 385.5zM293 1518v239h274v-239h-274zM365 510q0 -121 75 -189.5t191 -68.5t191 68.5t75 189.5v414q0 121 -75 189.5t-191 68.5t-191 -68.5t-75 -189.5 v-414zM694 1518v239h275v-239h-275z" />
<glyph unicode="&#xd7;" d="M104 281l293 292l-293 295l175 174l292 -294l295 294l174 -174l-295 -295l295 -292l-174 -175l-295 293l-292 -293z" />
<glyph unicode="&#xd8;" horiz-adv-x="1273" d="M96 12l99 162q-99 132 -99 336v414q0 241 143.5 385.5t397.5 144.5q170 0 301 -72l86 140l154 -101l-101 -161q101 -135 101 -336v-414q0 -241 -143.5 -385.5t-397.5 -144.5q-177 0 -301 71l-84 -137zM371 510q0 -33 2 -47l418 678q-65 41 -154 41q-116 0 -191 -68.5 t-75 -189.5v-414zM483 291q62 -39 154 -39q116 0 191 68.5t75 189.5v414q0 17 -4 45z" />
<glyph unicode="&#xd9;" horiz-adv-x="1310" d="M115 510v924h274v-924q0 -121 75 -189.5t191 -68.5q117 0 192 68.5t75 189.5v924h274v-924q0 -241 -143.5 -385.5t-397.5 -144.5t-397 144t-143 386zM315 1749l263 -223h247l-153 223h-357z" />
<glyph unicode="&#xda;" horiz-adv-x="1310" d="M115 510v924h274v-924q0 -121 75 -189.5t191 -68.5q117 0 192 68.5t75 189.5v924h274v-924q0 -241 -143.5 -385.5t-397.5 -144.5t-397 144t-143 386zM485 1526l154 223h356l-262 -223h-248z" />
<glyph unicode="&#xdb;" horiz-adv-x="1310" d="M115 510v924h274v-924q0 -121 75 -189.5t191 -68.5q117 0 192 68.5t75 189.5v924h274v-924q0 -241 -143.5 -385.5t-397.5 -144.5t-397 144t-143 386zM274 1526h291l90 71l90 -71h291l-268 223h-225z" />
<glyph unicode="&#xdc;" horiz-adv-x="1310" d="M115 510v924h274v-924q0 -121 75 -189.5t191 -68.5q117 0 192 68.5t75 189.5v924h274v-924q0 -241 -143.5 -385.5t-397.5 -144.5t-397 144t-143 386zM317 1518v239h275v-239h-275zM719 1518v239h274v-239h-274z" />
<glyph unicode="&#xdd;" horiz-adv-x="1241" d="M-25 1434h312l334 -598l333 598h312l-508 -912v-522h-275v522zM451 1526l153 223h357l-263 -223h-247z" />
<glyph unicode="&#xde;" horiz-adv-x="1222" d="M133 0v1434h275v-220h311q99 0 181.5 -26.5t140 -72.5t97 -109t58 -135t18.5 -152q0 -100 -30 -188t-89 -158t-156 -111t-220 -41h-311v-221h-275zM408 494h311q107 0 164 66.5t57 158.5q0 91 -57 157t-164 66h-311v-448z" />
<glyph unicode="&#xdf;" horiz-adv-x="1132" d="M123 0h270v1059q0 68 40.5 109.5t109.5 41.5q67 0 108 -48t41 -118t-41 -117.5t-108 -47.5h-51v-224h75q100 0 164 -59.5t64 -155.5q0 -98 -51 -157.5t-136 -59.5q-72 0 -116 33v-266q62 -10 116 -10q114 0 203.5 36.5t143.5 99.5t82 140t28 164q0 114 -48 214.5 t-151 168.5q97 104 97 268q0 79 -27.5 147.5t-78.5 121.5t-132 83.5t-182 30.5q-107 0 -189.5 -32t-132 -89t-74 -129.5t-24.5 -159.5v-1044z" />
<glyph unicode="&#xe0;" d="M84 293q0 117 46 190t155 125q48 23 139 39.5t159.5 23.5t176.5 15v2q-14 72 -64.5 113t-132.5 41q-69 0 -117 -31t-69 -86h-273q33 169 151 264.5t308 95.5q224 0 347.5 -131t123.5 -354v-600h-270v121q-86 -141 -295 -141q-181 0 -283 83t-102 230zM262 1434l242 -265 h233l-123 265h-352zM354 324q0 -44 38.5 -75.5t121.5 -31.5q108 0 179 57t71 154v35q-296 -19 -352 -49q-33 -17 -45.5 -36.5t-12.5 -53.5z" />
<glyph unicode="&#xe1;" d="M84 293q0 117 46 190t155 125q48 23 139 39.5t159.5 23.5t176.5 15v2q-14 72 -64.5 113t-132.5 41q-69 0 -117 -31t-69 -86h-273q33 169 151 264.5t308 95.5q224 0 347.5 -131t123.5 -354v-600h-270v121q-86 -141 -295 -141q-181 0 -283 83t-102 230zM354 324 q0 -44 38.5 -75.5t121.5 -31.5q108 0 179 57t71 154v35q-296 -19 -352 -49q-33 -17 -45.5 -36.5t-12.5 -53.5zM401 1169l123 265h353l-242 -265h-234z" />
<glyph unicode="&#xe2;" d="M84 293q0 117 46 190t155 125q48 23 139 39.5t159.5 23.5t176.5 15v2q-14 72 -64.5 113t-132.5 41q-69 0 -117 -31t-69 -86h-273q33 169 151 264.5t308 95.5q224 0 347.5 -131t123.5 -354v-600h-270v121q-86 -141 -295 -141q-181 0 -283 83t-102 230zM199 1169l258 265 h245l259 -265h-283l-98 93l-101 -93h-280zM354 324q0 -44 38.5 -75.5t121.5 -31.5q108 0 179 57t71 154v35q-296 -19 -352 -49q-33 -17 -45.5 -36.5t-12.5 -53.5z" />
<glyph unicode="&#xe3;" d="M84 293q0 117 46 190t155 125q48 23 139 39.5t159.5 23.5t176.5 15v2q-14 72 -64.5 113t-132.5 41q-69 0 -117 -31t-69 -86h-273q33 169 151 264.5t308 95.5q224 0 347.5 -131t123.5 -354v-600h-270v121q-86 -141 -295 -141q-181 0 -283 83t-102 230zM211 1171 q22 117 84 192t160 75q64 0 125 -31l55 -27q23 -10 49 -10q18 0 37 16t29 48h200q-22 -117 -83.5 -192t-159.5 -75q-64 0 -125 31l-56 27q-23 10 -49 10q-18 0 -37 -16t-30 -48h-199zM354 324q0 -44 38.5 -75.5t121.5 -31.5q108 0 179 57t71 154v35q-296 -19 -352 -49 q-33 -17 -45.5 -36.5t-12.5 -53.5z" />
<glyph unicode="&#xe4;" d="M84 293q0 117 46 190t155 125q48 23 139 39.5t159.5 23.5t176.5 15v2q-14 72 -64.5 113t-132.5 41q-69 0 -117 -31t-69 -86h-273q33 169 151 264.5t308 95.5q224 0 347.5 -131t123.5 -354v-600h-270v121q-86 -141 -295 -141q-181 0 -283 83t-102 230zM244 1182v239h270 v-239h-270zM354 324q0 -44 38.5 -75.5t121.5 -31.5q108 0 179 57t71 154v35q-296 -19 -352 -49q-33 -17 -45.5 -36.5t-12.5 -53.5zM645 1182v239h270v-239h-270z" />
<glyph unicode="&#xe5;" d="M84 293q0 117 46 190t155 125q48 23 139 39.5t159.5 23.5t176.5 15v2q-14 72 -64.5 113t-132.5 41q-69 0 -117 -31t-69 -86h-273q33 169 151 264.5t308 95.5q224 0 347.5 -131t123.5 -354v-600h-270v121q-86 -141 -295 -141q-181 0 -283 83t-102 230zM354 324 q0 -44 38.5 -75.5t121.5 -31.5q108 0 179 57t71 154v35q-296 -19 -352 -49q-33 -17 -45.5 -36.5t-12.5 -53.5zM428 1300q0 63 44.5 108.5t107.5 45.5t108 -45.5t45 -108.5t-45 -107t-108 -44t-107.5 44t-44.5 107zM539 1300q0 -17 12 -28.5t29 -11.5t29 11.5t12 28.5t-12 29 t-29 12t-29 -12t-12 -29z" />
<glyph unicode="&#xe6;" horiz-adv-x="1794" d="M84 293q0 117 46 190t155 125q48 23 139 39.5t159.5 23.5t176.5 15q-14 73 -64.5 114.5t-132.5 41.5q-69 0 -117 -31t-69 -86h-273q33 169 151 264.5t308 95.5q210 0 336 -141q126 141 336 141q224 0 347.5 -131t123.5 -354v-164h-672v-6q0 -95 53 -151t148 -56 q69 0 117 31t69 86h275q-33 -169 -152 -264.5t-309 -95.5q-149 0 -255 60t-161 169q-32 -111 -120 -170t-224 -59q-185 0 -288 83t-103 230zM354 324q0 -44 38.5 -75.5t121.5 -31.5q108 0 179 57t71 154v35q-296 -19 -352 -49q-33 -17 -45.5 -36.5t-12.5 -53.5zM1034 659 h400q-6 85 -58 134t-141 49t-141 -49t-60 -134z" />
<glyph unicode="&#xe7;" horiz-adv-x="1101" d="M90 465q0 -191 91.5 -316t260.5 -157l-112 -316h266l74 314q155 26 247 129.5t111 265.5h-270q-11 -76 -62 -119t-135 -43q-95 0 -148 56t-53 151v205q0 95 53 151t148 56q83 0 134 -43.5t63 -118.5h270q-22 189 -143.5 297t-323.5 108q-224 0 -347.5 -131t-123.5 -354 v-135z" />
<glyph unicode="&#xe8;" horiz-adv-x="1120" d="M90 465v135q0 223 123.5 354t347.5 131t347.5 -131t123.5 -354v-164h-672v-6q0 -95 53 -151t148 -56q69 0 117.5 31t69.5 86h274q-33 -169 -152 -264.5t-309 -95.5q-224 0 -347.5 131t-123.5 354zM264 1434l242 -265h233l-123 265h-352zM360 659h400v3q-6 84 -57.5 132 t-141.5 48q-89 0 -141 -48.5t-60 -131.5v-3z" />
<glyph unicode="&#xe9;" horiz-adv-x="1120" d="M90 465v135q0 223 123.5 354t347.5 131t347.5 -131t123.5 -354v-164h-672v-6q0 -95 53 -151t148 -56q69 0 117.5 31t69.5 86h274q-33 -169 -152 -264.5t-309 -95.5q-224 0 -347.5 131t-123.5 354zM360 659h400v3q-6 84 -57.5 132t-141.5 48q-89 0 -141 -48.5t-60 -131.5 v-3zM403 1169l123 265h353l-242 -265h-234z" />
<glyph unicode="&#xea;" horiz-adv-x="1120" d="M90 465v135q0 223 123.5 354t347.5 131t347.5 -131t123.5 -354v-164h-672v-6q0 -95 53 -151t148 -56q69 0 117.5 31t69.5 86h274q-33 -169 -152 -264.5t-309 -95.5q-224 0 -347.5 131t-123.5 354zM180 1169l258 265h246l258 -265h-283l-98 93l-100 -93h-281zM360 659h400 v3q-6 84 -57.5 132t-141.5 48q-89 0 -141 -48.5t-60 -131.5v-3z" />
<glyph unicode="&#xeb;" horiz-adv-x="1120" d="M90 465v135q0 223 123.5 354t347.5 131t347.5 -131t123.5 -354v-164h-672v-6q0 -95 53 -151t148 -56q69 0 117.5 31t69.5 86h274q-33 -169 -152 -264.5t-309 -95.5q-224 0 -347.5 131t-123.5 354zM225 1182v239h271v-239h-271zM360 659h400v3q-6 84 -57.5 132t-141.5 48 q-89 0 -141 -48.5t-60 -131.5v-3zM627 1182v239h270v-239h-270z" />
<glyph unicode="&#xec;" horiz-adv-x="516" d="M-39 1434l242 -265h233l-123 265h-352zM123 0v1057h270v-1057h-270z" />
<glyph unicode="&#xed;" horiz-adv-x="516" d="M100 1169l123 265h352l-241 -265h-234zM123 0v1057h270v-1057h-270z" />
<glyph unicode="&#xee;" horiz-adv-x="638" d="M-61 1169l258 265h245l258 -265h-282l-99 93l-100 -93h-280zM184 0v1057h271v-1057h-271z" />
<glyph unicode="&#xef;" horiz-adv-x="598" d="M-37 1182v239h270v-239h-270zM164 0v1057h270v-1057h-270zM365 1182v239h270v-239h-270z" />
<glyph unicode="&#xf0;" horiz-adv-x="1122" d="M90 465q0 -223 123.5 -354t347.5 -131t347.5 131t123.5 354v135q0 194 -94 320l-2 2l-170 235h102v164h-221l-80 113h-327l79 -113h-137v-164h256l54 -76q-192 -20 -297 -148t-105 -333v-135zM360 430v205q0 95 53 151t148 56t148 -56t53 -151v-205q0 -95 -53 -151 t-148 -56t-148 56t-53 151z" />
<glyph unicode="&#xf1;" horiz-adv-x="1173" d="M123 0h270v616q0 101 58.5 153t142.5 52t142.5 -52t58.5 -153v-616h270v627q0 91 -23.5 167t-64 129t-94.5 90t-115 54.5t-127 17.5q-72 0 -142.5 -33.5t-105.5 -86.5v92h-270v-1057zM225 1171q22 117 84 192t160 75q64 0 125 -31l55 -27q23 -10 49 -10q18 0 37 16t29 48 h201q-22 -117 -84 -192t-160 -75q-64 0 -125 31l-55 27q-23 10 -49 10q-18 0 -37.5 -16t-30.5 -48h-199z" />
<glyph unicode="&#xf2;" horiz-adv-x="1122" d="M90 465v135q0 223 123.5 354t347.5 131t347.5 -131t123.5 -354v-135q0 -223 -123.5 -354t-347.5 -131t-347.5 131t-123.5 354zM264 1434l242 -265h233l-123 265h-352zM360 430q0 -95 53 -151t148 -56t148 56t53 151v205q0 95 -53 151t-148 56t-148 -56t-53 -151v-205z " />
<glyph unicode="&#xf3;" horiz-adv-x="1122" d="M90 465v135q0 223 123.5 354t347.5 131t347.5 -131t123.5 -354v-135q0 -223 -123.5 -354t-347.5 -131t-347.5 131t-123.5 354zM360 430q0 -95 53 -151t148 -56t148 56t53 151v205q0 95 -53 151t-148 56t-148 -56t-53 -151v-205zM403 1169l123 265h353l-242 -265h-234z " />
<glyph unicode="&#xf4;" horiz-adv-x="1122" d="M90 465v135q0 223 123.5 354t347.5 131t347.5 -131t123.5 -354v-135q0 -223 -123.5 -354t-347.5 -131t-347.5 131t-123.5 354zM180 1169l258 265h246l258 -265h-283l-98 93l-100 -93h-281zM360 430q0 -95 53 -151t148 -56t148 56t53 151v205q0 95 -53 151t-148 56 t-148 -56t-53 -151v-205z" />
<glyph unicode="&#xf5;" horiz-adv-x="1122" d="M90 465v135q0 223 123.5 354t347.5 131t347.5 -131t123.5 -354v-135q0 -223 -123.5 -354t-347.5 -131t-347.5 131t-123.5 354zM193 1171q22 117 83.5 192t159.5 75q64 0 125 -31l55 -27q23 -10 50 -10q18 0 36.5 16t28.5 48h201q-22 -117 -84 -192t-160 -75 q-64 0 -125 31l-55 27q-23 10 -49 10q-18 0 -37.5 -16t-30.5 -48h-198zM360 430q0 -95 53 -151t148 -56t148 56t53 151v205q0 95 -53 151t-148 56t-148 -56t-53 -151v-205z" />
<glyph unicode="&#xf6;" horiz-adv-x="1122" d="M90 465v135q0 223 123.5 354t347.5 131t347.5 -131t123.5 -354v-135q0 -223 -123.5 -354t-347.5 -131t-347.5 131t-123.5 354zM225 1182v239h271v-239h-271zM360 430q0 -95 53 -151t148 -56t148 56t53 151v205q0 95 -53 151t-148 56t-148 -56t-53 -151v-205zM627 1182 v239h270v-239h-270z" />
<glyph unicode="&#xf7;" d="M100 440v246h942v-246h-942zM422 209q0 61 43.5 104t105.5 43t105 -43t43 -104q0 -62 -43.5 -106t-104.5 -44t-105 44t-44 106zM422 920q0 61 43.5 104t105.5 43t105 -43t43 -104q0 -62 -43.5 -106t-104.5 -44t-105 44t-44 106z" />
<glyph unicode="&#xf8;" horiz-adv-x="1134" d="M96 8l94 135q-94 126 -94 322v135q0 223 123.5 354t347.5 131q145 0 250 -57l88 123l133 -94l-96 -135q96 -125 96 -322v-135q0 -223 -123.5 -354t-347.5 -131q-143 0 -250 55l-86 -121zM367 430q0 -27 2 -37l301 426q-48 23 -103 23q-95 0 -147.5 -56t-52.5 -151v-205z M465 244q43 -21 102 -21q95 0 148 56t53 151v205q0 6 -1 18t-1 17z" />
<glyph unicode="&#xf9;" horiz-adv-x="1161" d="M109 438v619h270v-608q0 -99 57 -152t137 -53t137.5 53t57.5 152v608h270v-1057h-270v115q-37 -60 -101.5 -97.5t-154.5 -37.5q-76 0 -146.5 28t-128.5 81.5t-93 144t-35 204.5zM276 1434l242 -265h234l-123 265h-353z" />
<glyph unicode="&#xfa;" horiz-adv-x="1161" d="M109 438v619h270v-608q0 -99 57 -152t137 -53t137.5 53t57.5 152v608h270v-1057h-270v115q-37 -60 -101.5 -97.5t-154.5 -37.5q-76 0 -146.5 28t-128.5 81.5t-93 144t-35 204.5zM416 1169l123 265h352l-242 -265h-233z" />
<glyph unicode="&#xfb;" horiz-adv-x="1161" d="M109 438v619h270v-608q0 -99 57 -152t137 -53t137.5 53t57.5 152v608h270v-1057h-270v115q-37 -60 -101.5 -97.5t-154.5 -37.5q-76 0 -146.5 28t-128.5 81.5t-93 144t-35 204.5zM193 1169l258 265h245l258 -265h-282l-99 93l-100 -93h-280z" />
<glyph unicode="&#xfc;" horiz-adv-x="1161" d="M109 438v619h270v-608q0 -99 57 -152t137 -53t137.5 53t57.5 152v608h270v-1057h-270v115q-37 -60 -101.5 -97.5t-154.5 -37.5q-76 0 -146.5 28t-128.5 81.5t-93 144t-35 204.5zM238 1182v239h270v-239h-270zM639 1182v239h270v-239h-270z" />
<glyph unicode="&#xfd;" horiz-adv-x="1003" d="M-18 1057h284l236 -674l235 674h285l-416 -1157q-6 -16 -19.5 -57t-19 -55t-19.5 -45t-24 -42.5t-29 -31t-39 -26.5t-48.5 -13.5t-63.5 -6.5h-201v244h113q56 0 72 47l30 86zM344 1169l123 265h352l-241 -265h-234z" />
<glyph unicode="&#xfe;" horiz-adv-x="1155" d="M123 -377h270v477q35 -53 105.5 -86.5t142.5 -33.5q66 0 127 17.5t115 54.5t94.5 90t64 129t23.5 167v189q0 91 -23.5 167t-64 129t-94.5 90t-115 54.5t-127 17.5q-72 0 -142.5 -33.5t-105.5 -86.5v469h-270v-1811zM393 449v167q0 101 58.5 153t142.5 52t142.5 -52 t58.5 -153v-167q0 -101 -58.5 -153t-142.5 -52t-142.5 52t-58.5 153z" />
<glyph unicode="&#xff;" horiz-adv-x="1003" d="M-18 1057h284l236 -674l235 674h285l-416 -1157q-6 -16 -19.5 -57t-19 -55t-19.5 -45t-24 -42.5t-29 -31t-39 -26.5t-48.5 -13.5t-63.5 -6.5h-201v244h113q56 0 72 47l30 86zM166 1182v239h270v-239h-270zM567 1182v239h271v-239h-271z" />
<glyph unicode="&#x152;" horiz-adv-x="1869" d="M90 510v414q0 241 143.5 385.5t397.5 144.5q168 0 266 -84v64h872v-273h-598v-301h598v-272h-598v-316h598v-272h-872v63q-97 -83 -266 -83q-254 0 -397.5 144.5t-143.5 385.5zM365 510q0 -121 75 -189.5t191 -68.5t191 68.5t75 189.5v414q0 121 -75 189.5t-191 68.5 t-191 -68.5t-75 -189.5v-414z" />
<glyph unicode="&#x153;" horiz-adv-x="1792" d="M90 465v135q0 223 123.5 354t347.5 131q208 0 336 -141q128 141 336 141q224 0 347.5 -131t123.5 -354v-164h-672v-6q0 -95 53 -151t148 -56q69 0 117 31t69 86h275q-33 -169 -152 -264.5t-309 -95.5q-208 0 -336 141q-128 -141 -336 -141q-224 0 -347.5 131t-123.5 354z M360 430q0 -95 53 -151t148 -56t148 56t53 151v205q0 95 -53 151t-148 56t-148 -56t-53 -151v-205zM1032 659h400q-6 85 -58 134t-141 49t-141 -49t-60 -134z" />
<glyph unicode="&#x178;" horiz-adv-x="1241" d="M-25 1434h312l334 -598l333 598h312l-508 -912v-522h-275v522zM283 1518v239h274v-239h-274zM684 1518v239h274v-239h-274z" />
<glyph unicode="&#x2c6;" horiz-adv-x="937" d="M88 1169l258 265h246l258 -265h-283l-98 93l-100 -93h-281z" />
<glyph unicode="&#x2dc;" horiz-adv-x="927" d="M94 1171q22 117 84 192t160 75q64 0 125 -31l55 -27q23 -10 49 -10q18 0 37 16t29 48h201q-22 -117 -84 -192t-160 -75q-64 0 -125 31l-55 27q-23 10 -50 10q-18 0 -37 -16t-30 -48h-199z" />
<glyph unicode="&#x2000;" horiz-adv-x="895" />
<glyph unicode="&#x2001;" horiz-adv-x="1790" />
<glyph unicode="&#x2002;" horiz-adv-x="895" />
<glyph unicode="&#x2003;" horiz-adv-x="1790" />
<glyph unicode="&#x2004;" horiz-adv-x="596" />
<glyph unicode="&#x2005;" horiz-adv-x="447" />
<glyph unicode="&#x2006;" horiz-adv-x="298" />
<glyph unicode="&#x2007;" horiz-adv-x="298" />
<glyph unicode="&#x2008;" horiz-adv-x="223" />
<glyph unicode="&#x2009;" horiz-adv-x="358" />
<glyph unicode="&#x200a;" horiz-adv-x="99" />
<glyph unicode="&#x2010;" horiz-adv-x="757" d="M82 440v246h594v-246h-594z" />
<glyph unicode="&#x2011;" horiz-adv-x="757" d="M82 440v246h594v-246h-594z" />
<glyph unicode="&#x2012;" horiz-adv-x="757" d="M82 440v246h594v-246h-594z" />
<glyph unicode="&#x2013;" horiz-adv-x="1105" d="M82 440v246h942v-246h-942z" />
<glyph unicode="&#x2014;" horiz-adv-x="1753" d="M82 440v246h1589v-246h-1589z" />
<glyph unicode="&#x2018;" horiz-adv-x="544" d="M109 872v328l88 234h192l-88 -234h135v-328h-327z" />
<glyph unicode="&#x2019;" horiz-adv-x="544" d="M109 1106v328h327v-328l-88 -234h-192l88 234h-135z" />
<glyph unicode="&#x201a;" horiz-adv-x="544" d="M109 0v328h327v-328l-88 -233h-192l88 233h-135z" />
<glyph unicode="&#x201c;" horiz-adv-x="1036" d="M109 872v328l88 234h192l-88 -234h135v-328h-327zM600 872v328l88 234h193l-88 -234h135v-328h-328z" />
<glyph unicode="&#x201d;" horiz-adv-x="1036" d="M109 1106v328h327v-328l-88 -234h-192l88 234h-135zM600 1106v328h328v-328l-88 -234h-193l88 234h-135z" />
<glyph unicode="&#x201e;" horiz-adv-x="1036" d="M109 0v328h327v-328l-88 -233h-192l88 233h-135zM600 0v328h328v-328l-88 -233h-193l88 233h-135z" />
<glyph unicode="&#x2022;" horiz-adv-x="1638" d="M475 713q0 143 100.5 243.5t243.5 100.5t243.5 -100.5t100.5 -243.5t-100.5 -243.5t-243.5 -100.5t-243.5 100.5t-100.5 243.5z" />
<glyph unicode="&#x2026;" horiz-adv-x="1757" d="M129 0v328h328v-328h-328zM715 0v328h327v-328h-327zM1300 0v328h328v-328h-328z" />
<glyph unicode="&#x202f;" horiz-adv-x="358" />
<glyph unicode="&#x2039;" horiz-adv-x="550" d="M86 442l363 -317v332l-117 102l117 103v331l-363 -317v-234z" />
<glyph unicode="&#x203a;" horiz-adv-x="550" d="M102 125v332l117 102l-117 103v331l363 -317v-234z" />
<glyph unicode="&#x205f;" horiz-adv-x="447" />
<glyph unicode="&#x20ac;" horiz-adv-x="1259" d="M59 784l43 164h125q8 231 150.5 368.5t390.5 137.5q263 0 408 -154l-195 -184q-76 94 -213 94q-114 0 -190 -68t-80 -194h501l-43 -164h-458v-133h424l-43 -164h-381q4 -127 80 -195.5t190 -68.5q137 0 213 94l195 -184q-144 -153 -408 -153q-249 0 -392 137.5 t-149 369.5h-164l43 164h121v133h-168z" />
<glyph unicode="&#x2122;" horiz-adv-x="1564" d="M-2 1251v183h661v-183h-235v-649h-191v649h-235zM735 602v832h183l194 -400l193 400h184v-832h-184v479l-123 -256h-142l-122 256v-479h-183z" />
<glyph unicode="&#x25fc;" horiz-adv-x="1054" d="M0 0v1055h1055v-1055h-1055z" />
</font>
</defs>
</svg>
